<mxfile host="app.diagrams.net" modified="2024-03-14T14:09:40.098Z" agent="Mozilla/5.0 (Windows NT 10.0; Win64; x64) AppleWebKit/537.36 (KHTML, like Gecko) Chrome/122.0.0.0 Safari/537.36" etag="57eLDZaCbPlnN6MVJ86w" version="24.0.2" type="device" pages="2">
  <diagram name="Pagina-1" id="CLqOo4b7nUpYWD98sbsR">
    <mxGraphModel dx="1434" dy="780" grid="1" gridSize="10" guides="1" tooltips="1" connect="1" arrows="1" fold="1" page="1" pageScale="1" pageWidth="827" pageHeight="1169" math="0" shadow="0">
      <root>
        <mxCell id="0" />
        <mxCell id="1" parent="0" />
        <mxCell id="d3kJWAeJ2ZM6qOk6K0BX-20" value="" style="edgeStyle=orthogonalEdgeStyle;rounded=0;orthogonalLoop=1;jettySize=auto;html=1;startArrow=classic;startFill=1;endArrow=none;endFill=0;" parent="1" source="d3kJWAeJ2ZM6qOk6K0BX-4" target="d3kJWAeJ2ZM6qOk6K0BX-12" edge="1">
          <mxGeometry relative="1" as="geometry" />
        </mxCell>
        <mxCell id="d3kJWAeJ2ZM6qOk6K0BX-4" value="Cane" style="swimlane;fontStyle=1;align=center;verticalAlign=top;childLayout=stackLayout;horizontal=1;startSize=26;horizontalStack=0;resizeParent=1;resizeParentMax=0;resizeLast=0;collapsible=1;marginBottom=0;whiteSpace=wrap;html=1;" parent="1" vertex="1">
          <mxGeometry x="310" y="50" width="160" height="190" as="geometry" />
        </mxCell>
        <mxCell id="d3kJWAeJ2ZM6qOk6K0BX-5" value="&amp;nbsp;nome: String" style="text;strokeColor=none;fillColor=none;align=left;verticalAlign=top;spacingLeft=4;spacingRight=4;overflow=hidden;rotatable=0;points=[[0,0.5],[1,0.5]];portConstraint=eastwest;whiteSpace=wrap;html=1;" parent="d3kJWAeJ2ZM6qOk6K0BX-4" vertex="1">
          <mxGeometry y="26" width="160" height="26" as="geometry" />
        </mxCell>
        <mxCell id="d3kJWAeJ2ZM6qOk6K0BX-8" value="&amp;nbsp;razza: String" style="text;strokeColor=none;fillColor=none;align=left;verticalAlign=top;spacingLeft=4;spacingRight=4;overflow=hidden;rotatable=0;points=[[0,0.5],[1,0.5]];portConstraint=eastwest;whiteSpace=wrap;html=1;" parent="d3kJWAeJ2ZM6qOk6K0BX-4" vertex="1">
          <mxGeometry y="52" width="160" height="26" as="geometry" />
        </mxCell>
        <mxCell id="d3kJWAeJ2ZM6qOk6K0BX-9" value="&amp;nbsp;taglia: String" style="text;strokeColor=none;fillColor=none;align=left;verticalAlign=top;spacingLeft=4;spacingRight=4;overflow=hidden;rotatable=0;points=[[0,0.5],[1,0.5]];portConstraint=eastwest;whiteSpace=wrap;html=1;" parent="d3kJWAeJ2ZM6qOk6K0BX-4" vertex="1">
          <mxGeometry y="78" width="160" height="26" as="geometry" />
        </mxCell>
        <mxCell id="d3kJWAeJ2ZM6qOk6K0BX-10" value="+ eta: int" style="text;strokeColor=none;fillColor=none;align=left;verticalAlign=top;spacingLeft=4;spacingRight=4;overflow=hidden;rotatable=0;points=[[0,0.5],[1,0.5]];portConstraint=eastwest;whiteSpace=wrap;html=1;" parent="d3kJWAeJ2ZM6qOk6K0BX-4" vertex="1">
          <mxGeometry y="104" width="160" height="26" as="geometry" />
        </mxCell>
        <mxCell id="d3kJWAeJ2ZM6qOk6K0BX-6" value="" style="line;strokeWidth=1;fillColor=none;align=left;verticalAlign=middle;spacingTop=-1;spacingLeft=3;spacingRight=3;rotatable=0;labelPosition=right;points=[];portConstraint=eastwest;strokeColor=inherit;" parent="d3kJWAeJ2ZM6qOk6K0BX-4" vertex="1">
          <mxGeometry y="130" width="160" height="8" as="geometry" />
        </mxCell>
        <mxCell id="d3kJWAeJ2ZM6qOk6K0BX-7" value="+ mangia(int): void" style="text;strokeColor=none;fillColor=none;align=left;verticalAlign=top;spacingLeft=4;spacingRight=4;overflow=hidden;rotatable=0;points=[[0,0.5],[1,0.5]];portConstraint=eastwest;whiteSpace=wrap;html=1;" parent="d3kJWAeJ2ZM6qOk6K0BX-4" vertex="1">
          <mxGeometry y="138" width="160" height="26" as="geometry" />
        </mxCell>
        <mxCell id="d3kJWAeJ2ZM6qOk6K0BX-11" value="+ stampaCartellino(): String" style="text;strokeColor=none;fillColor=none;align=left;verticalAlign=top;spacingLeft=4;spacingRight=4;overflow=hidden;rotatable=0;points=[[0,0.5],[1,0.5]];portConstraint=eastwest;whiteSpace=wrap;html=1;" parent="d3kJWAeJ2ZM6qOk6K0BX-4" vertex="1">
          <mxGeometry y="164" width="160" height="26" as="geometry" />
        </mxCell>
        <mxCell id="d3kJWAeJ2ZM6qOk6K0BX-12" value="CaneGrande" style="swimlane;fontStyle=1;align=center;verticalAlign=top;childLayout=stackLayout;horizontal=1;startSize=26;horizontalStack=0;resizeParent=1;resizeParentMax=0;resizeLast=0;collapsible=1;marginBottom=0;whiteSpace=wrap;html=1;" parent="1" vertex="1">
          <mxGeometry x="310" y="280" width="160" height="86" as="geometry" />
        </mxCell>
        <mxCell id="d3kJWAeJ2ZM6qOk6K0BX-13" value="&amp;nbsp;ciboSpeciale: String" style="text;strokeColor=none;fillColor=none;align=left;verticalAlign=top;spacingLeft=4;spacingRight=4;overflow=hidden;rotatable=0;points=[[0,0.5],[1,0.5]];portConstraint=eastwest;whiteSpace=wrap;html=1;" parent="d3kJWAeJ2ZM6qOk6K0BX-12" vertex="1">
          <mxGeometry y="26" width="160" height="26" as="geometry" />
        </mxCell>
        <mxCell id="d3kJWAeJ2ZM6qOk6K0BX-17" value="" style="line;strokeWidth=1;fillColor=none;align=left;verticalAlign=middle;spacingTop=-1;spacingLeft=3;spacingRight=3;rotatable=0;labelPosition=right;points=[];portConstraint=eastwest;strokeColor=inherit;" parent="d3kJWAeJ2ZM6qOk6K0BX-12" vertex="1">
          <mxGeometry y="52" width="160" height="8" as="geometry" />
        </mxCell>
        <mxCell id="d3kJWAeJ2ZM6qOk6K0BX-18" value="+ mangia(int): void" style="text;strokeColor=none;fillColor=none;align=left;verticalAlign=top;spacingLeft=4;spacingRight=4;overflow=hidden;rotatable=0;points=[[0,0.5],[1,0.5]];portConstraint=eastwest;whiteSpace=wrap;html=1;" parent="d3kJWAeJ2ZM6qOk6K0BX-12" vertex="1">
          <mxGeometry y="60" width="160" height="26" as="geometry" />
        </mxCell>
        <mxCell id="d3kJWAeJ2ZM6qOk6K0BX-21" value="CaniDemo" style="swimlane;fontStyle=1;align=center;verticalAlign=top;childLayout=stackLayout;horizontal=1;startSize=26;horizontalStack=0;resizeParent=1;resizeParentMax=0;resizeLast=0;collapsible=1;marginBottom=0;whiteSpace=wrap;html=1;" parent="1" vertex="1">
          <mxGeometry x="40" y="50" width="160" height="60" as="geometry" />
        </mxCell>
        <mxCell id="d3kJWAeJ2ZM6qOk6K0BX-23" value="" style="line;strokeWidth=1;fillColor=none;align=left;verticalAlign=middle;spacingTop=-1;spacingLeft=3;spacingRight=3;rotatable=0;labelPosition=right;points=[];portConstraint=eastwest;strokeColor=inherit;" parent="d3kJWAeJ2ZM6qOk6K0BX-21" vertex="1">
          <mxGeometry y="26" width="160" height="8" as="geometry" />
        </mxCell>
        <mxCell id="d3kJWAeJ2ZM6qOk6K0BX-24" value="main()" style="text;strokeColor=none;fillColor=none;align=left;verticalAlign=top;spacingLeft=4;spacingRight=4;overflow=hidden;rotatable=0;points=[[0,0.5],[1,0.5]];portConstraint=eastwest;whiteSpace=wrap;html=1;" parent="d3kJWAeJ2ZM6qOk6K0BX-21" vertex="1">
          <mxGeometry y="34" width="160" height="26" as="geometry" />
        </mxCell>
        <mxCell id="d3kJWAeJ2ZM6qOk6K0BX-25" style="edgeStyle=orthogonalEdgeStyle;rounded=0;orthogonalLoop=1;jettySize=auto;html=1;exitX=1;exitY=0.25;exitDx=0;exitDy=0;endArrow=none;endFill=0;" parent="1" source="d3kJWAeJ2ZM6qOk6K0BX-21" target="d3kJWAeJ2ZM6qOk6K0BX-4" edge="1">
          <mxGeometry relative="1" as="geometry">
            <Array as="points">
              <mxPoint x="270" y="65" />
              <mxPoint x="270" y="120" />
            </Array>
          </mxGeometry>
        </mxCell>
        <mxCell id="d3kJWAeJ2ZM6qOk6K0BX-26" value="cani" style="shape=folder;fontStyle=1;spacingTop=10;tabWidth=40;tabHeight=14;tabPosition=left;html=1;whiteSpace=wrap;fillColor=#fff2cc;strokeColor=#d6b656;" parent="1" vertex="1">
          <mxGeometry x="310" width="70" height="40" as="geometry" />
        </mxCell>
        <mxCell id="d3kJWAeJ2ZM6qOk6K0BX-27" value="demo" style="shape=folder;fontStyle=1;spacingTop=10;tabWidth=40;tabHeight=14;tabPosition=left;html=1;whiteSpace=wrap;fillColor=#fff2cc;strokeColor=#d6b656;" parent="1" vertex="1">
          <mxGeometry x="40" width="70" height="40" as="geometry" />
        </mxCell>
      </root>
    </mxGraphModel>
  </diagram>
  <diagram id="srf8QHhFqyViDebV1jas" name="Pagina-2">
    <mxGraphModel dx="1434" dy="780" grid="1" gridSize="10" guides="1" tooltips="1" connect="1" arrows="1" fold="1" page="1" pageScale="1" pageWidth="827" pageHeight="1169" math="0" shadow="0">
      <root>
        <mxCell id="0" />
        <mxCell id="1" parent="0" />
        <mxCell id="l7lK0nVgUm7hjoSGtMqk-3" value="" style="edgeStyle=orthogonalEdgeStyle;rounded=0;orthogonalLoop=1;jettySize=auto;html=1;" edge="1" parent="1" source="l7lK0nVgUm7hjoSGtMqk-1" target="l7lK0nVgUm7hjoSGtMqk-2">
          <mxGeometry relative="1" as="geometry" />
        </mxCell>
        <mxCell id="l7lK0nVgUm7hjoSGtMqk-1" value="User scegli tra PFC" style="shape=parallelogram;perimeter=parallelogramPerimeter;whiteSpace=wrap;html=1;fixedSize=1;" vertex="1" parent="1">
          <mxGeometry x="310" y="110" width="170" height="60" as="geometry" />
        </mxCell>
        <mxCell id="l7lK0nVgUm7hjoSGtMqk-5" value="" style="edgeStyle=orthogonalEdgeStyle;rounded=0;orthogonalLoop=1;jettySize=auto;html=1;" edge="1" parent="1" source="l7lK0nVgUm7hjoSGtMqk-2" target="l7lK0nVgUm7hjoSGtMqk-4">
          <mxGeometry relative="1" as="geometry" />
        </mxCell>
        <mxCell id="l7lK0nVgUm7hjoSGtMqk-2" value="pc scegli tra PFC" style="whiteSpace=wrap;html=1;" vertex="1" parent="1">
          <mxGeometry x="340" y="250" width="120" height="60" as="geometry" />
        </mxCell>
        <mxCell id="l7lK0nVgUm7hjoSGtMqk-7" value="" style="edgeStyle=orthogonalEdgeStyle;rounded=0;orthogonalLoop=1;jettySize=auto;html=1;" edge="1" parent="1" source="l7lK0nVgUm7hjoSGtMqk-4" target="l7lK0nVgUm7hjoSGtMqk-6">
          <mxGeometry relative="1" as="geometry" />
        </mxCell>
        <mxCell id="l7lK0nVgUm7hjoSGtMqk-9" value="" style="edgeStyle=orthogonalEdgeStyle;rounded=0;orthogonalLoop=1;jettySize=auto;html=1;" edge="1" parent="1" source="l7lK0nVgUm7hjoSGtMqk-6" target="l7lK0nVgUm7hjoSGtMqk-8">
          <mxGeometry relative="1" as="geometry">
            <mxPoint x="210" y="500" as="sourcePoint" />
            <Array as="points">
              <mxPoint x="240" y="490" />
              <mxPoint x="400" y="490" />
            </Array>
          </mxGeometry>
        </mxCell>
        <mxCell id="l7lK0nVgUm7hjoSGtMqk-16" value="" style="edgeStyle=orthogonalEdgeStyle;rounded=0;orthogonalLoop=1;jettySize=auto;html=1;" edge="1" parent="1" source="l7lK0nVgUm7hjoSGtMqk-4" target="l7lK0nVgUm7hjoSGtMqk-15">
          <mxGeometry relative="1" as="geometry" />
        </mxCell>
        <mxCell id="l7lK0nVgUm7hjoSGtMqk-4" value="U == PC" style="rhombus;whiteSpace=wrap;html=1;" vertex="1" parent="1">
          <mxGeometry x="360" y="380" width="80" height="80" as="geometry" />
        </mxCell>
        <mxCell id="l7lK0nVgUm7hjoSGtMqk-6" value="&lt;b&gt;result &lt;/b&gt;= &#39;Pareggio&#39;" style="whiteSpace=wrap;html=1;" vertex="1" parent="1">
          <mxGeometry x="180" y="390" width="120" height="60" as="geometry" />
        </mxCell>
        <mxCell id="l7lK0nVgUm7hjoSGtMqk-13" value="" style="edgeStyle=orthogonalEdgeStyle;rounded=0;orthogonalLoop=1;jettySize=auto;html=1;" edge="1" parent="1" source="l7lK0nVgUm7hjoSGtMqk-8" target="l7lK0nVgUm7hjoSGtMqk-11">
          <mxGeometry relative="1" as="geometry" />
        </mxCell>
        <mxCell id="l7lK0nVgUm7hjoSGtMqk-8" value="Print &lt;b&gt;result&lt;/b&gt;" style="shape=parallelogram;perimeter=parallelogramPerimeter;whiteSpace=wrap;html=1;fixedSize=1;" vertex="1" parent="1">
          <mxGeometry x="120" y="720" width="170" height="60" as="geometry" />
        </mxCell>
        <mxCell id="l7lK0nVgUm7hjoSGtMqk-12" value="" style="edgeStyle=orthogonalEdgeStyle;rounded=0;orthogonalLoop=1;jettySize=auto;html=1;" edge="1" parent="1" source="l7lK0nVgUm7hjoSGtMqk-10" target="l7lK0nVgUm7hjoSGtMqk-1">
          <mxGeometry relative="1" as="geometry" />
        </mxCell>
        <mxCell id="l7lK0nVgUm7hjoSGtMqk-10" value="start" style="strokeWidth=2;html=1;shape=mxgraph.flowchart.start_1;whiteSpace=wrap;" vertex="1" parent="1">
          <mxGeometry x="345" y="20" width="100" height="60" as="geometry" />
        </mxCell>
        <mxCell id="l7lK0nVgUm7hjoSGtMqk-11" value="end" style="strokeWidth=2;html=1;shape=mxgraph.flowchart.start_1;whiteSpace=wrap;" vertex="1" parent="1">
          <mxGeometry x="350" y="950" width="100" height="60" as="geometry" />
        </mxCell>
        <mxCell id="l7lK0nVgUm7hjoSGtMqk-14" value="true" style="text;html=1;align=center;verticalAlign=middle;whiteSpace=wrap;rounded=0;" vertex="1" parent="1">
          <mxGeometry x="300" y="390" width="60" height="30" as="geometry" />
        </mxCell>
        <mxCell id="l7lK0nVgUm7hjoSGtMqk-18" value="" style="edgeStyle=orthogonalEdgeStyle;rounded=0;orthogonalLoop=1;jettySize=auto;html=1;" edge="1" parent="1" source="l7lK0nVgUm7hjoSGtMqk-15" target="l7lK0nVgUm7hjoSGtMqk-17">
          <mxGeometry relative="1" as="geometry" />
        </mxCell>
        <mxCell id="l7lK0nVgUm7hjoSGtMqk-20" value="" style="edgeStyle=orthogonalEdgeStyle;rounded=0;orthogonalLoop=1;jettySize=auto;html=1;" edge="1" parent="1" source="l7lK0nVgUm7hjoSGtMqk-15" target="l7lK0nVgUm7hjoSGtMqk-19">
          <mxGeometry relative="1" as="geometry" />
        </mxCell>
        <mxCell id="l7lK0nVgUm7hjoSGtMqk-15" value="U == P&lt;div&gt;PC == F&lt;/div&gt;" style="rhombus;whiteSpace=wrap;html=1;" vertex="1" parent="1">
          <mxGeometry x="540" y="380" width="80" height="80" as="geometry" />
        </mxCell>
        <mxCell id="l7lK0nVgUm7hjoSGtMqk-21" style="edgeStyle=orthogonalEdgeStyle;rounded=0;orthogonalLoop=1;jettySize=auto;html=1;exitX=0.5;exitY=1;exitDx=0;exitDy=0;" edge="1" parent="1" source="l7lK0nVgUm7hjoSGtMqk-17" target="l7lK0nVgUm7hjoSGtMqk-8">
          <mxGeometry relative="1" as="geometry" />
        </mxCell>
        <mxCell id="l7lK0nVgUm7hjoSGtMqk-17" value="result = &quot;Umano&quot;" style="whiteSpace=wrap;html=1;" vertex="1" parent="1">
          <mxGeometry x="640" y="390" width="120" height="60" as="geometry" />
        </mxCell>
        <mxCell id="l7lK0nVgUm7hjoSGtMqk-19" value="result = &quot;PC&quot;" style="whiteSpace=wrap;html=1;" vertex="1" parent="1">
          <mxGeometry x="540" y="510" width="120" height="60" as="geometry" />
        </mxCell>
        <mxCell id="l7lK0nVgUm7hjoSGtMqk-22" style="edgeStyle=orthogonalEdgeStyle;rounded=0;orthogonalLoop=1;jettySize=auto;html=1;exitX=0;exitY=0.25;exitDx=0;exitDy=0;entryX=0.853;entryY=0.5;entryDx=0;entryDy=0;entryPerimeter=0;" edge="1" parent="1" source="l7lK0nVgUm7hjoSGtMqk-19" target="l7lK0nVgUm7hjoSGtMqk-8">
          <mxGeometry relative="1" as="geometry" />
        </mxCell>
        <mxCell id="l7lK0nVgUm7hjoSGtMqk-23" value="" style="edgeStyle=orthogonalEdgeStyle;rounded=0;orthogonalLoop=1;jettySize=auto;html=1;" edge="1" source="l7lK0nVgUm7hjoSGtMqk-25" target="l7lK0nVgUm7hjoSGtMqk-26" parent="1">
          <mxGeometry relative="1" as="geometry" />
        </mxCell>
        <mxCell id="l7lK0nVgUm7hjoSGtMqk-24" value="" style="edgeStyle=orthogonalEdgeStyle;rounded=0;orthogonalLoop=1;jettySize=auto;html=1;" edge="1" source="l7lK0nVgUm7hjoSGtMqk-25" target="l7lK0nVgUm7hjoSGtMqk-27" parent="1">
          <mxGeometry relative="1" as="geometry" />
        </mxCell>
        <mxCell id="l7lK0nVgUm7hjoSGtMqk-25" value="U == F&lt;div&gt;PC == C&lt;/div&gt;" style="rhombus;whiteSpace=wrap;html=1;" vertex="1" parent="1">
          <mxGeometry x="540" y="595" width="80" height="80" as="geometry" />
        </mxCell>
        <mxCell id="l7lK0nVgUm7hjoSGtMqk-33" style="edgeStyle=orthogonalEdgeStyle;rounded=0;orthogonalLoop=1;jettySize=auto;html=1;exitX=0;exitY=0;exitDx=0;exitDy=0;" edge="1" parent="1" source="l7lK0nVgUm7hjoSGtMqk-26" target="l7lK0nVgUm7hjoSGtMqk-8">
          <mxGeometry relative="1" as="geometry" />
        </mxCell>
        <mxCell id="l7lK0nVgUm7hjoSGtMqk-26" value="result = &quot;Umano&quot;" style="whiteSpace=wrap;html=1;" vertex="1" parent="1">
          <mxGeometry x="640" y="605" width="120" height="60" as="geometry" />
        </mxCell>
        <mxCell id="l7lK0nVgUm7hjoSGtMqk-34" style="edgeStyle=orthogonalEdgeStyle;rounded=0;orthogonalLoop=1;jettySize=auto;html=1;exitX=0;exitY=0.25;exitDx=0;exitDy=0;" edge="1" parent="1" source="l7lK0nVgUm7hjoSGtMqk-27" target="l7lK0nVgUm7hjoSGtMqk-8">
          <mxGeometry relative="1" as="geometry" />
        </mxCell>
        <mxCell id="l7lK0nVgUm7hjoSGtMqk-27" value="result = &quot;PC&quot;" style="whiteSpace=wrap;html=1;" vertex="1" parent="1">
          <mxGeometry x="540" y="725" width="120" height="60" as="geometry" />
        </mxCell>
        <mxCell id="l7lK0nVgUm7hjoSGtMqk-28" value="" style="edgeStyle=orthogonalEdgeStyle;rounded=0;orthogonalLoop=1;jettySize=auto;html=1;" edge="1" source="l7lK0nVgUm7hjoSGtMqk-30" target="l7lK0nVgUm7hjoSGtMqk-31" parent="1">
          <mxGeometry relative="1" as="geometry" />
        </mxCell>
        <mxCell id="l7lK0nVgUm7hjoSGtMqk-29" value="" style="edgeStyle=orthogonalEdgeStyle;rounded=0;orthogonalLoop=1;jettySize=auto;html=1;" edge="1" source="l7lK0nVgUm7hjoSGtMqk-30" target="l7lK0nVgUm7hjoSGtMqk-32" parent="1">
          <mxGeometry relative="1" as="geometry" />
        </mxCell>
        <mxCell id="l7lK0nVgUm7hjoSGtMqk-30" value="U == C&lt;div&gt;PC == P&lt;/div&gt;" style="rhombus;whiteSpace=wrap;html=1;" vertex="1" parent="1">
          <mxGeometry x="540" y="800" width="80" height="80" as="geometry" />
        </mxCell>
        <mxCell id="l7lK0nVgUm7hjoSGtMqk-35" style="edgeStyle=orthogonalEdgeStyle;rounded=0;orthogonalLoop=1;jettySize=auto;html=1;exitX=0;exitY=0;exitDx=0;exitDy=0;" edge="1" parent="1" source="l7lK0nVgUm7hjoSGtMqk-31" target="l7lK0nVgUm7hjoSGtMqk-8">
          <mxGeometry relative="1" as="geometry" />
        </mxCell>
        <mxCell id="l7lK0nVgUm7hjoSGtMqk-31" value="result = &quot;Umano&quot;" style="whiteSpace=wrap;html=1;" vertex="1" parent="1">
          <mxGeometry x="640" y="810" width="120" height="60" as="geometry" />
        </mxCell>
        <mxCell id="l7lK0nVgUm7hjoSGtMqk-36" style="edgeStyle=orthogonalEdgeStyle;rounded=0;orthogonalLoop=1;jettySize=auto;html=1;exitX=0.25;exitY=0;exitDx=0;exitDy=0;" edge="1" parent="1" source="l7lK0nVgUm7hjoSGtMqk-32" target="l7lK0nVgUm7hjoSGtMqk-8">
          <mxGeometry relative="1" as="geometry" />
        </mxCell>
        <mxCell id="l7lK0nVgUm7hjoSGtMqk-32" value="result = &quot;PC&quot;" style="whiteSpace=wrap;html=1;" vertex="1" parent="1">
          <mxGeometry x="540" y="930" width="120" height="60" as="geometry" />
        </mxCell>
      </root>
    </mxGraphModel>
  </diagram>
</mxfile>
